<?xml version="1.0" encoding="UTF-8"?>
<svg version="1.1" xmlns="http://www.w3.org/2000/svg" width="2000" height="930">
<path d="M0 0 C1.09441406 -0.02835938 2.18882812 -0.05671875 3.31640625 -0.0859375 C7.23944906 0.49343553 8.71872914 1.50286257 11.4375 4.375 C14.82039176 10.20603711 14.98079435 15.60269414 14.9375 22.25 C14.93105469 23.30082764 14.92460938 24.35165527 14.91796875 25.43432617 C13.42082111 91.76683137 -27.09829503 167.06252516 -59.96826172 223.62646484 C-61.51423466 226.29178849 -63.04129775 228.96722949 -64.56640625 231.64453125 C-70.90442034 242.670492 -77.71390648 253.34866239 -84.75 263.9375 C-85.16379913 264.56262482 -85.57759827 265.18774963 -86.00393677 265.83181763 C-93.75272801 277.51129741 -101.91065821 288.75997368 -111.45703125 299.05859375 C-113.00924568 300.7663176 -114.49224602 302.53756545 -115.93359375 304.33984375 C-122.49579334 312.26251469 -132.85727216 320.28583998 -143.16015625 321.7421875 C-147.28594665 321.94878083 -149.84819994 321.77014471 -153.5 319.75 C-160.97337344 311.14429725 -160.97944725 298.82151497 -160.2878418 287.97241211 C-157.19473968 252.31963488 -140.14346767 194.53907875 -112.5625 169.375 C-108.85084669 166.47809985 -106.25779528 165.85330052 -101.5625 166.375 C-99.5625 168.375 -99.5625 168.375 -98.875 172.1875 C-99.0028036 177.55525125 -101.55129427 180.75598664 -104.65966797 184.96899414 C-124.51859848 211.94106016 -140.72633152 253.03758413 -140.75 286.8125 C-140.76224609 287.72837891 -140.77449219 288.64425781 -140.78710938 289.58789062 C-140.79859561 294.92133415 -140.31768142 299.33145496 -138.5625 304.375 C-131.43980957 304.95644412 -127.56595706 302.91276424 -122.3203125 298.48046875 C-105.17833758 282.40644434 -93.73774806 259.78923209 -82.5625 239.375 C-82.05879883 238.45783203 -81.55509766 237.54066406 -81.03613281 236.59570312 C-66.68635531 210.4050283 -53.40402666 183.79408725 -41.5625 156.375 C-41.26623718 155.69008484 -40.96997437 155.00516968 -40.66473389 154.29949951 C-11.72763786 91.55160652 -11.72763786 91.55160652 0.625 24.75 C0.64626953 22.81253906 0.64626953 22.81253906 0.66796875 20.8359375 C0.45728565 17.67212011 0.12203393 15.99834533 -1.5625 13.375 C-9.87327088 12.84885048 -14.60010913 17.77024285 -20.60546875 22.984375 C-31.84525229 32.99623943 -42.09726355 44.08024015 -51.48828125 55.83203125 C-53.60337596 58.42511347 -55.80768096 60.902849 -58.0625 63.375 C-62.76703862 68.54999249 -67.16949231 73.93506057 -71.5625 79.375 C-72.58528358 80.62943969 -73.60876167 81.88331335 -74.6328125 83.13671875 C-80.28942531 90.06632302 -85.8915787 97.03169925 -91.39575195 104.08300781 C-94.91581044 108.58124925 -98.5110822 113.0144647 -102.125 117.4375 C-107.25968817 123.7291217 -112.24887132 130.109771 -117.17578125 136.56591797 C-119.93239857 140.1621388 -122.71740061 143.73637085 -125.5 147.3125 C-126.09772217 148.08086182 -126.69544434 148.84922363 -127.3112793 149.64086914 C-130.96499049 154.33366815 -134.63286552 159.01501115 -138.3125 163.6875 C-143.03008067 169.67908431 -147.6894582 175.71368129 -152.32861328 181.76611328 C-154.40342587 184.47149812 -156.48322853 187.17304166 -158.5625 189.875 C-159.39585693 190.95831518 -160.22919027 192.04164851 -161.0625 193.125 C-166.0625 199.625 -166.0625 199.625 -167.31176758 201.24902344 C-168.14757376 202.33558779 -168.98334835 203.42217645 -169.8190918 204.50878906 C-171.86433636 207.16788548 -173.91019991 209.8264994 -175.95703125 212.484375 C-182.84602122 221.4322715 -189.7092231 230.39972644 -196.5625 239.375 C-197.52712158 240.63787842 -197.52712158 240.63787842 -198.51123047 241.92626953 C-205.22596888 250.71934064 -211.93694595 259.51444236 -218.5625 268.375 C-226.51386914 279.00848086 -234.58823971 289.54849484 -242.64453125 300.10253906 C-249.79356058 309.46965235 -256.93095923 318.84376696 -263.98754883 328.28076172 C-274.54087198 342.37666976 -285.28469393 356.33064489 -295.98583984 370.31445312 C-298.13471533 373.12283174 -300.28273503 375.93186428 -302.43066406 378.7409668 C-303.51713182 380.16179484 -304.60372005 381.58253077 -305.69042969 383.00317383 C-308.38835422 386.53032532 -311.08459816 390.05873651 -313.77734375 393.58984375 C-319.99119867 401.73428073 -326.24590117 409.84505675 -332.54272461 417.92553711 C-335.89732351 422.23097224 -339.23914888 426.5453969 -342.5625 430.875 C-348.85727658 439.07164668 -355.20664726 447.22566406 -361.5625 455.375 C-362.05395508 456.00583496 -362.54541016 456.63666992 -363.05175781 457.28662109 C-368.98500859 464.89756401 -375.00373594 472.42994632 -381.14868164 479.87158203 C-384.19191461 483.58228636 -386.9738297 487.33293167 -389.5625 491.375 C-362.3200454 505.28527191 -333.81038926 511.60097501 -303.3125 511.625 C-302.53438965 511.62567474 -301.7562793 511.62634949 -300.95458984 511.62704468 C-240.4701538 511.5451476 -177.13552672 501.69689769 -120.03149414 481.86303711 C-119.09426514 481.53827393 -118.15703613 481.21351074 -117.19140625 480.87890625 C-116.36713135 480.58830322 -115.54285645 480.2977002 -114.69360352 479.99829102 C-112.5625 479.375 -112.5625 479.375 -109.5625 479.375 C-109.60890625 478.81296875 -109.6553125 478.2509375 -109.703125 477.671875 C-110.83714414 451.26542941 -97.94283916 424.38027279 -81.5625 404.375 C-80.38494141 402.89386719 -80.38494141 402.89386719 -79.18359375 401.3828125 C-68.15829596 387.75247159 -55.50829699 375.00530291 -41.5625 364.375 C-40.02916016 363.15103516 -40.02916016 363.15103516 -38.46484375 361.90234375 C-31.73229853 356.55192308 -24.82338011 351.75012142 -17.37158203 347.42871094 C-16.12257733 346.70122048 -14.87905106 345.96427097 -13.64013672 345.21972656 C20.80722946 324.54297618 59.91332494 315.54144692 99.6875 313.625 C100.75959717 313.56803955 101.83169434 313.5110791 102.9362793 313.45239258 C112.82436521 313.053357 112.82436521 313.053357 117.4375 315.375 C119.4375 318.375 119.4375 318.375 119.2421875 321.24609375 C116.68223385 331.20008829 108.32918251 339.26279833 101.73046875 346.86425781 C99.929218 348.96889143 98.21291922 351.13566516 96.5 353.3125 C91.83236526 359.19695194 86.91787274 364.86294081 82.01074219 370.54736328 C80.45165753 372.35855318 78.9003266 374.17607439 77.3515625 375.99609375 C72.72706903 381.42600564 68.07711267 386.81012392 63.25 392.0625 C60.04104956 395.55759889 56.97684163 399.1178384 54 402.8125 C50.77804063 406.80727502 47.43063535 410.62022694 43.9375 414.375 C38.85289426 419.84801924 34.11813988 425.55170843 29.4375 431.375 C28.0422661 433.06299565 26.64641764 434.75048348 25.25 436.4375 C23.64137959 438.41324458 22.03739215 440.39222272 20.4375 442.375 C19.66164551 443.33188721 19.66164551 443.33188721 18.87011719 444.30810547 C0.61560232 464.7443214 0.61560232 464.7443214 -7.5625 489.375 C-1.30585851 488.91495283 3.21196046 486.78045604 8.6875 483.8125 C9.58718506 483.33288818 10.48687012 482.85327637 11.41381836 482.35913086 C22.56863136 476.33668582 33.42946507 469.80117606 44.28857422 463.26611328 C47.09351442 461.58158337 49.90553494 459.9101406 52.72265625 458.24609375 C62.1115963 452.6869144 71.36613137 446.93499387 80.5625 441.0625 C81.59391113 440.40443359 82.62532227 439.74636719 83.68798828 439.06835938 C95.70355142 431.53783929 95.70355142 431.53783929 106.4375 422.375 C107.52144585 421.5376217 108.63061856 420.73159104 109.765625 419.96484375 C110.39178711 419.53840576 111.01794922 419.11196777 111.66308594 418.67260742 C112.33114258 418.22377197 112.99919922 417.77493652 113.6875 417.3125 C115.13547022 416.32820378 116.58338542 415.34382661 118.03125 414.359375 C118.76730469 413.86115234 119.50335937 413.36292969 120.26171875 412.84960938 C126.34459005 408.72701706 132.3914566 404.55134033 138.4375 400.375 C139.24300293 399.81876953 140.04850586 399.26253906 140.87841797 398.68945312 C154.80736772 389.05390983 168.33438939 379.2426866 181.05932617 368.04833984 C184.47571222 365.04631636 187.93401139 362.1838601 191.5625 359.4375 C202.17765238 351.0478205 210.55064662 340.26345194 218.4375 329.375 C220.75015437 326.35868085 223.08992558 323.36419443 225.4375 320.375 C229.05704169 320.62752616 231.16777256 321.19109493 234.1875 323.25 C237.58927134 327.97468241 239.27504236 331.47067244 238.4375 337.375 C235.90149483 342.78918093 231.98330932 347.43643392 228.27099609 352.07958984 C226.42535333 354.39020679 224.62458848 356.73005996 222.83203125 359.08203125 C209.81538933 376.0973884 195.90507389 392.3613323 181.95361328 408.60888672 C180.44616962 410.3649008 178.93967804 412.12172618 177.43359375 413.87890625 C176.691698 414.74443115 176.691698 414.74443115 175.93481445 415.62744141 C174.93688038 416.79215886 173.93932147 417.95719786 172.94213867 419.12255859 C170.42709658 422.06053469 167.904729 424.99158074 165.3671875 427.91015625 C158.76449858 435.52363237 152.4884953 443.31593104 146.4375 451.375 C152.55266606 447.38202906 158.46783448 443.18962529 164.3125 438.8125 C171.55758673 433.42751256 178.91563994 428.25294293 186.39135742 423.19433594 C191.71306996 419.58362189 196.93672173 415.86187303 202.125 412.0625 C210.20205521 406.15829406 218.49154728 400.59981912 226.85229492 395.10620117 C232.56366277 391.34247095 238.13578984 387.44355553 243.64868164 383.39526367 C248.50120578 379.88001923 253.47254385 376.54110503 258.4375 373.1875 C260.10037343 372.06112504 261.76278113 370.93406494 263.4251709 369.80697632 C265.07356034 368.68946861 266.72232475 367.57251406 268.37109375 366.45556641 C272.5683697 363.6077013 276.75415186 360.74326879 280.9375 357.875 C286.1744608 354.28459208 291.41938639 350.70644613 296.67578125 347.14453125 C297.75730469 346.41105469 298.83882812 345.67757813 299.953125 344.921875 C302.13279141 343.44466032 304.31376045 341.96936569 306.49609375 340.49609375 C311.65783565 336.99942988 316.73760613 333.44485522 321.70605469 329.67919922 C327.35925289 325.42096673 331.24388323 322.80407803 338.4375 323.375 C342.38940944 324.97258041 343.793342 326.54333565 345.4375 330.375 C347.6451626 343.62097558 336.67101014 357.15782364 329.4375 367.375 C328.50819165 368.71680918 327.57986942 370.05930167 326.65234375 371.40234375 C317.76200994 384.2108214 308.14127455 396.33175985 298.2824707 408.40112305 C294.22543712 413.37513671 290.27003244 418.42120571 286.33569336 423.49243164 C282.90916485 427.8692642 279.25514937 431.97861495 275.41015625 435.99609375 C272.96329992 438.94685712 271.26635545 442.00777844 269.4375 445.375 C278.75080388 439.75402777 287.73348849 433.84061716 296.50683594 427.40771484 C301.94923359 423.42414014 307.47527813 419.58974488 313.0625 415.8125 C319.69020692 411.3209183 326.1501789 406.6651173 332.52441406 401.82177734 C337.22058518 398.2616257 341.98775671 394.82113658 346.8125 391.4375 C358.97045496 382.90884762 370.99089292 374.19703474 382.9375 365.375 C391.33008586 359.1774509 399.75920253 353.03351498 408.23779297 346.95410156 C409.7046406 345.90109707 411.16981272 344.84575465 412.63330078 343.78808594 C420.16368618 338.34788356 427.72584372 333.04492054 435.6875 328.25 C436.29553467 327.88358398 436.90356934 327.51716797 437.5300293 327.13964844 C443.76745159 323.46510566 448.2247634 321.67699323 455.4375 322.375 C459.20928194 326.11185803 459.20458731 330.14749878 459.5 335.21875 C458.90402596 365.31543898 421.67881099 398.15389182 401.6875 418.25 C401.08583008 418.85634277 400.48416016 419.46268555 399.86425781 420.08740234 C396.17794578 423.76061376 392.36463811 427.22994841 388.42871094 430.63330078 C385.18937721 433.46672486 382.06627357 436.42066529 378.9375 439.375 C377.52878296 440.70196851 376.11992487 442.02878729 374.7109375 443.35546875 C373.64504395 444.359729 373.64504395 444.359729 372.55761719 445.38427734 C370.53769495 447.28092013 368.50914781 449.16772528 366.4765625 451.05078125 C359.16263907 457.83648195 351.96228553 464.727515 344.875 471.75 C344.13717285 472.47485596 343.3993457 473.19971191 342.63916016 473.9465332 C334.59560366 481.93729646 334.59560366 481.93729646 328.4375 491.375 C349.15206786 483.75439678 367.84053719 471.02542381 386.4375 459.375 C387.75113525 458.55249756 387.75113525 458.55249756 389.09130859 457.71337891 C393.73562353 454.80062293 398.36802528 451.8695741 402.99365234 448.92724609 C405.70770114 447.20337774 408.42602595 445.48636248 411.14453125 443.76953125 C413.09644965 442.534005 415.04827417 441.29833043 417 440.0625 C417.89235352 439.49966309 418.78470703 438.93682617 419.70410156 438.35693359 C422.2935992 436.71369164 424.86731095 435.04825301 427.4375 433.375 C428.33605713 432.80402588 429.23461426 432.23305176 430.16040039 431.64477539 C435.60443829 428.05455856 438.75940106 425.23298616 441.75 419.4375 C467.87396266 372.04957046 521.37297309 337.94185199 572.12109375 322.96875 C591.73787992 317.42276205 611.79311228 314.60006229 632.125 313.6875 C633.21361328 313.62755859 634.30222656 313.56761719 635.42382812 313.50585938 C641.1944374 313.24977763 646.04790959 313.16639861 651.4375 315.375 C653.00452549 318.50905098 652.74801639 320.90578241 652.4375 324.375 C651.04173826 326.88096054 649.74046017 328.89560021 648 331.125 C647.5455249 331.73206787 647.0910498 332.33913574 646.62280273 332.96459961 C642.39232667 338.5677184 637.96939342 344.0136419 633.4375 349.375 C633.0029248 349.8891748 632.56834961 350.40334961 632.12060547 350.93310547 C630.25806775 353.13573001 628.39458557 355.33751733 626.52587891 357.53491211 C623.59457262 360.98618971 620.72038689 364.47714004 617.875 368 C614.04847138 372.70642558 610.00589562 377.17148106 605.8984375 381.6328125 C603.52710105 384.27515883 601.28497003 386.98194167 599.0625 389.75 C595.67362187 393.95316687 592.12490524 397.93682572 588.4375 401.875 C584.03381492 406.58255382 579.87673927 411.41171183 575.83984375 416.44140625 C572.98788188 419.92404586 570.02901993 423.30255826 567.0625 426.6875 C560.92382463 433.72358532 555.11261854 440.96219728 549.4375 448.375 C548.93831055 449.02114258 548.43912109 449.66728516 547.92480469 450.33300781 C532.68171677 468.21524287 532.68171677 468.21524287 525.4375 489.375 C532.37778208 488.99696788 537.630706 486.04857476 543.6875 482.8125 C545.32211182 481.94999634 545.32211182 481.94999634 546.98974609 481.07006836 C558.62033813 474.86172367 569.94303646 468.14623144 581.21972656 461.31982422 C584.2408725 459.49384178 587.27110168 457.68412158 590.3046875 455.87890625 C602.40360358 448.64079922 614.18081286 440.99613515 625.83203125 433.06298828 C626.67135445 432.49487427 626.67135445 432.49487427 627.52763367 431.9152832 C629.05317405 430.88218003 630.57516567 429.84384211 632.09692383 428.80517578 C634.4375 427.375 634.4375 427.375 636.4375 427.375 C636.67186768 426.77913086 636.90623535 426.18326172 637.14770508 425.56933594 C638.75692729 422.8315564 640.35300272 421.88703882 643.07421875 420.265625 C644.03247559 419.68409668 644.99073242 419.10256836 645.97802734 418.50341797 C647.53577881 417.57360107 647.53577881 417.57360107 649.125 416.625 C661.58343179 409.01661155 673.54989319 400.84041697 685.4375 392.375 C686.71125488 391.47273682 686.71125488 391.47273682 688.01074219 390.55224609 C704.35399907 378.96532076 720.58692922 366.88904378 733.4375 351.375 C734.26765625 350.40949219 735.0978125 349.44398438 735.953125 348.44921875 C741.60337084 341.87427805 747.00605384 335.15614815 752.24609375 328.25 C754.27183784 325.59233931 756.33900654 322.97541103 758.4375 320.375 C762.02170374 320.57412243 763.21589715 321.13493024 765.6875 323.8125 C768.02441235 328.56978586 769.42956543 332.05522883 768.4375 337.375 C766.01628568 341.79450911 763.08266622 345.63855965 759.91650391 349.54736328 C758.46261552 351.34396421 757.04557112 353.16404056 755.63671875 354.99609375 C750.04671932 362.23781855 744.2534892 369.31422174 738.4375 376.375 C736.97905659 378.16657706 735.52072483 379.95824502 734.0625 381.75 C730.26710492 386.39175496 726.40454953 390.97231351 722.52172852 395.54077148 C719.64229732 398.9341538 716.80560273 402.35749917 714 405.8125 C710.59272904 410.00326108 707.09600319 414.10375253 703.5625 418.1875 C688.83120529 434.00105193 688.83120529 434.00105193 678.4375 452.375 C685.30649139 447.48277623 692.16541631 442.57746287 698.99609375 437.63183594 C708.42501866 430.80526162 717.908759 424.06143217 727.4375 417.375 C728.20255859 416.83794434 728.96761719 416.30088867 729.75585938 415.74755859 C746.62841021 403.90844481 763.52257027 392.09824847 780.52587891 380.44750977 C785.72999946 376.87572934 790.897356 373.25283905 796.0625 369.625 C804.99739568 363.35367243 814.00148005 357.18840294 823.03125 351.0546875 C826.56123396 348.65627075 830.08203112 346.24539138 833.59375 343.8203125 C842.39474616 337.74660479 851.19587289 331.76374245 860.4375 326.375 C861.57058594 325.69630859 861.57058594 325.69630859 862.7265625 325.00390625 C867.57066773 322.301307 871.03359618 321.64226728 876.4375 322.375 C880.19773675 326.14400187 880.21171482 330.14331308 880.48828125 335.23828125 C880.22112424 351.74036434 867.21978077 367.07062099 857.4375 379.375 C856.62796875 380.39851563 855.8184375 381.42203125 854.984375 382.4765625 C850.74706774 387.73615717 846.33029082 392.80836483 841.7734375 397.79296875 C839.88045939 399.88537432 838.03312512 402.00364268 836.19140625 404.140625 C832.30601111 408.58977723 828.18680062 412.77331036 824 416.9375 C822.93168945 418.01161133 822.93168945 418.01161133 821.84179688 419.10742188 C817.81501195 423.12689202 813.69105256 426.96446674 809.38256836 430.67944336 C806.15483822 433.49312302 803.05043865 436.43561737 799.9375 439.375 C798.52878296 440.70196851 797.11992487 442.02878729 795.7109375 443.35546875 C795.0003418 444.02497559 794.28974609 444.69448242 793.55761719 445.38427734 C791.53769495 447.28092013 789.50914781 449.16772528 787.4765625 451.05078125 C780.16263907 457.83648195 772.96228553 464.727515 765.875 471.75 C765.13717285 472.47485596 764.3993457 473.19971191 763.63916016 473.9465332 C755.59560366 481.93729646 755.59560366 481.93729646 749.4375 491.375 C770.15206786 483.75439678 788.84053719 471.02542381 807.4375 459.375 C808.31325684 458.82666504 809.18901367 458.27833008 810.09130859 457.71337891 C814.73837617 454.79889657 819.37395025 451.86673341 824.00244141 448.92285156 C826.69112912 447.21377997 829.38263318 445.50919134 832.07421875 443.8046875 C835.86941763 441.40075322 839.65627169 438.98443406 843.4375 436.55859375 C846.35010479 434.69188877 849.27313325 432.85988987 852.25 431.09765625 C858.43324701 427.31814651 861.95725107 423.84524205 865.546875 417.5546875 C869.58300376 410.76665277 874.58870317 404.59648662 879.4375 398.375 C879.85950684 397.83149902 880.28151367 397.28799805 880.71630859 396.72802734 C886.91370972 388.84340202 893.87864049 381.73594984 900.9375 374.625 C901.80366943 373.74948486 902.66983887 372.87396973 903.56225586 371.97192383 C913.96939757 361.61571589 925.50468421 352.86871708 937.4375 344.375 C938.01951172 343.95605469 938.60152344 343.53710938 939.20117188 343.10546875 C963.08095961 326.02911657 995.89515806 308.38611539 1026.4375 312.375 C1030.52005352 313.99608702 1033.2951521 315.46793841 1035.4375 319.375 C1037.48088224 329.86804392 1032.05951738 339.11960664 1026.4921875 347.578125 C1023.54428571 351.59085824 1020.24735516 355.20278889 1016.8359375 358.82421875 C1014.83054629 360.95698823 1012.937666 363.12937438 1011.0625 365.375 C1003.55054735 373.96260785 991.31709909 387.59263764 979.31640625 388.54296875 C978.55199219 388.54941406 977.78757812 388.55585938 977 388.5625 C976.23816406 388.57667969 975.47632813 388.59085937 974.69140625 388.60546875 C972.1642408 388.34705842 970.58324968 387.71904101 968.4375 386.375 C966.67399021 382.84798043 966.90328021 379.2248665 967.4375 375.375 C969.13046988 370.93411258 971.05665236 366.75584764 974.4375 363.375 C977.875 363.0625 977.875 363.0625 981.4375 363.375 C983.16015625 364.89453125 983.16015625 364.89453125 984.4375 366.375 C1006.33594963 349.93159791 1006.33594963 349.93159791 1020.4375 327.375 C1020.4375 326.055 1020.4375 324.735 1020.4375 323.375 C998.08243549 321.09387097 974.58951344 340.92288276 958.43603516 353.99462891 C954.35431281 357.3638206 950.38150898 360.84641171 946.4375 364.375 C945.50550781 365.19613281 944.57351563 366.01726562 943.61328125 366.86328125 C930.93140747 378.23628661 917.9799712 390.16184999 907.5390625 403.66015625 C905.92909783 405.73994332 904.2903578 407.74609959 902.5859375 409.74609375 C884.94350726 430.60046318 861.74729286 459.43560072 862.4375 488.375 C862.7675 489.035 863.0975 489.695 863.4375 490.375 C890.87585017 493.95391524 922.56222249 471.36038152 944.81298828 457.94726562 C947.16312094 456.5393722 949.52592377 455.15976617 951.90234375 453.796875 C962.10357034 447.93725973 971.96196134 441.59665814 981.76953125 435.1015625 C985.29615479 432.76637389 988.84542296 430.48749655 992.44921875 428.2734375 C1003.10308628 421.64163204 1010.73107202 414.23645072 1018.4375 404.375 C1019.93396006 402.53877605 1021.43365302 400.70517905 1022.9375 398.875 C1023.63875 398.00875 1024.34 397.1425 1025.0625 396.25 C1028.51226753 392.07396562 1032.08088481 388.00414586 1035.640625 383.921875 C1038.80229231 380.28743501 1041.90607472 376.61970182 1044.9375 372.875 C1049.53302024 367.20411123 1054.31730752 361.70749864 1059.109375 356.203125 C1062.25691579 352.58765713 1065.3828653 348.95419443 1068.5 345.3125 C1068.99089111 344.73910889 1069.48178223 344.16571777 1069.98754883 343.57495117 C1070.97635203 342.41969482 1071.96504049 341.26434024 1072.95361328 340.10888672 C1075.44645524 337.19605954 1077.94212766 334.28565939 1080.4375 331.375 C1081.4375134 330.20834482 1082.43751341 329.04167816 1083.4375 327.875 C1089.4375 320.875 1089.4375 320.875 1090.93823242 319.12426758 C1091.93595195 317.96018023 1092.93351114 316.79595544 1093.9309082 315.6315918 C1096.46448743 312.67430113 1099.00100137 309.71961631 1101.54296875 306.76953125 C1106.11460453 301.45855709 1110.65703692 296.13819597 1115.0625 290.6875 C1118.86192969 286.00336556 1122.88150208 281.56567472 1126.96484375 277.12890625 C1130.18459519 273.54292716 1133.19655176 269.80798508 1136.22265625 266.05859375 C1139.10230887 262.56949084 1142.14443876 259.24503079 1145.19140625 255.90234375 C1147.49937598 253.30537607 1149.69305863 250.64095987 1151.875 247.9375 C1155.73575137 243.163597 1159.81187075 238.64111572 1163.96875 234.125 C1166.38128104 231.43762366 1168.6700621 228.68534556 1170.9375 225.875 C1174.77585414 221.11760332 1178.83372359 216.61716082 1182.97265625 212.12109375 C1185.36457297 209.45624834 1187.63004884 206.72668175 1189.875 203.9375 C1193.53644829 199.39782072 1197.39123548 195.10974744 1201.36230469 190.84472656 C1204.25326262 187.72104752 1206.97848501 184.5195884 1209.625 181.1875 C1222.95136834 164.70988657 1238.60646379 150.10351649 1253.625 135.1875 C1257.16523674 131.67109285 1260.70365658 128.15289048 1264.23793983 124.63049889 C1265.63002722 123.2447987 1267.02519963 121.86219992 1268.42045593 120.47969055 C1273.54672217 115.39254598 1273.54672217 115.39254598 1278.30981445 109.97143555 C1280.17617137 107.6939019 1281.99310637 105.87203387 1284.25 104 C1288.54104538 100.33691248 1292.48879075 96.40083247 1296.4375 92.375 C1300.96330423 87.76080116 1305.55251061 83.330541 1310.45068359 79.11230469 C1313.81049747 76.17442861 1317.01741128 73.07624389 1320.25 70 C1325.67787655 64.86971408 1331.17582137 59.98079982 1337.0234375 55.33203125 C1339.27366452 53.50781808 1341.38220912 51.59969691 1343.5 49.625 C1356.74812282 37.77515848 1377.17010042 20.73993635 1396.0390625 21.4765625 C1399.76665016 22.09580345 1402.00690855 23.03892863 1405 25.375 C1407.56602477 30.73018212 1407.28242199 35.55989127 1405.58984375 41.19921875 C1396.97175297 63.08040517 1381.50877479 81.64985178 1366.4375 99.375 C1365.88030273 100.03129395 1365.32310547 100.68758789 1364.74902344 101.36376953 C1358.07770975 109.19658909 1351.23263116 116.84810754 1344.21875 124.375 C1341.67029537 127.11248836 1339.17445888 129.89392976 1336.6875 132.6875 C1333.43124272 136.32580912 1330.06896207 139.80598992 1326.5546875 143.1953125 C1324.8252675 144.97578549 1323.23950472 146.7801985 1321.63696289 148.67114258 C1316.1030756 155.00854888 1310.08057463 160.87572604 1304.12890625 166.81640625 C1302.83513566 168.1108519 1301.54151343 169.40544584 1300.24803162 170.70018005 C1297.54742761 173.40225151 1294.84504107 176.10252381 1292.14135742 178.80151367 C1288.69405451 182.2431199 1285.2512615 185.68919705 1281.80980015 189.13664341 C1279.14259788 191.80747711 1276.47299632 194.47590244 1273.80268669 197.14362907 C1272.5330278 198.41262583 1271.26409757 199.6823521 1269.99594307 200.95285225 C1258.02739893 212.93867787 1258.02739893 212.93867787 1252.02012634 218.01255798 C1249.34380852 220.31653066 1246.89894576 222.8459321 1244.4375 225.375 C1240.62191614 229.29540759 1236.66794779 232.95670051 1232.53027344 236.53613281 C1228.95259536 239.67974822 1225.51546069 242.97077318 1222.0625 246.25 C1216.66059083 251.35703619 1211.24024104 256.42802867 1205.6875 261.37109375 C1204.11640179 262.7703531 1202.55459535 264.18008452 1201 265.59765625 C1195.85198719 270.28717417 1190.56968754 274.74558986 1185.15625 279.125 C1182.51602271 281.31001569 1179.9702028 283.56671391 1177.4375 285.875 C1172.79312677 290.09781823 1167.98358208 294.07097656 1163.10400391 298.01757812 C1161.19965888 299.56872936 1159.30826869 301.13488929 1157.41796875 302.703125 C1149.42792567 309.32916912 1141.39790215 315.8607032 1133.109375 322.11230469 C1131.32884324 323.45706378 1129.55508889 324.81048983 1127.78125 326.1640625 C1118.62512934 333.12062931 1109.27553599 339.77789833 1099.8359375 346.34375 C1099.07587402 346.87258789 1098.31581055 347.40142578 1097.53271484 347.94628906 C1095.75769486 349.15666158 1093.94492263 350.31138108 1092.125 351.453125 C1089.17311238 353.56406789 1087.26968364 355.75319973 1085.0625 358.625 C1081.77383343 362.77997639 1078.39666555 366.58485847 1074.5546875 370.23046875 C1062.514617 382.42603832 1052.0535176 396.41676216 1041.72265625 410.0546875 C1038.31632294 414.54936837 1034.84747808 418.99385266 1031.375 423.4375 C1026.83557603 429.26201162 1022.32457751 435.10648755 1017.875 441 C1017.39861084 441.62656494 1016.92222168 442.25312988 1016.43139648 442.89868164 C1013.17149993 447.2392197 1010.24858226 451.73219009 1007.4375 456.375 C1013.36461642 453.21661171 1018.92975648 449.80229542 1024.375 445.875 C1025.09953369 445.35800537 1025.82406738 444.84101074 1026.57055664 444.30834961 C1028.86356494 442.6694311 1031.1511419 441.02318034 1033.4375 439.375 C1034.17742187 438.84277832 1034.91734375 438.31055664 1035.6796875 437.76220703 C1040.18305456 434.52195543 1044.67877265 431.27125242 1049.17138672 428.01611328 C1053.67446034 424.75499921 1058.18336107 421.50194485 1062.69165039 418.24804688 C1066.42003303 415.55647046 1070.14611679 412.8618343 1073.8671875 410.16015625 C1083.32087314 403.30243646 1092.84225492 396.55007476 1102.42578125 389.875 C1105.60180962 387.66219834 1108.76619248 385.43469632 1111.91796875 383.1875 C1128.43848195 371.4437018 1145.42598237 360.39003532 1162.4375 349.375 C1163.03361084 348.98898621 1163.62972168 348.60297241 1164.24389648 348.20526123 C1176.34797479 340.38025628 1188.6548796 333.00064513 1201.25 326 C1201.84361328 325.67 1202.43722656 325.34 1203.04882812 325 C1216.67089099 317.45078974 1216.67089099 317.45078974 1224.4375 318.375 C1227.11181489 320.18663267 1227.39670359 321.25261077 1228.4375 324.375 C1230.76294564 345.30401076 1215.51449234 362.69157248 1203.29296875 378.07421875 C1201.0332663 380.86322087 1198.73794841 383.61950326 1196.4375 386.375 C1195.6029126 387.38199951 1194.7683252 388.38899902 1193.90844727 389.42651367 C1186.6022836 398.15214402 1178.80920928 406.28406226 1170.72705078 414.29125977 C1168.67021993 416.32962493 1166.62171383 418.37608947 1164.57421875 420.42382812 C1163.24266094 421.75047536 1161.91064601 423.07666398 1160.578125 424.40234375 C1159.97897278 425.00038315 1159.37982056 425.59842255 1158.76251221 426.21458435 C1155.08896006 429.84781919 1151.28689931 433.27586293 1147.381073 436.6570282 C1144.39901838 439.29293936 1141.58565099 442.08368601 1138.77734375 444.90234375 C1138.18377579 445.49495499 1137.59020782 446.08756622 1136.97865295 446.69813538 C1135.73641292 447.93970122 1134.49540932 449.18250536 1133.25561523 450.42651367 C1131.37920525 452.30828274 1129.49751031 454.18464738 1127.61523438 456.06054688 C1119.94571672 463.72492185 1112.4717355 471.39509558 1106 480.125 C1105.32066406 481.02734375 1104.64132812 481.9296875 1103.94140625 482.859375 C1102.09541793 485.45872872 1102.09541793 485.45872872 1102.4375 489.375 C1106.52764736 488.79359809 1110.15256192 487.8829278 1114.0078125 486.40625 C1115.05880127 486.00486816 1116.10979004 485.60348633 1117.19262695 485.18994141 C1118.30468506 484.75601074 1119.41674316 484.32208008 1120.5625 483.875 C1121.72031982 483.42431152 1122.87813965 482.97362305 1124.07104492 482.50927734 C1147.66286939 473.23775049 1169.13330566 461.71541229 1190.29101562 447.77685547 C1194.10381809 445.28673812 1197.95876163 442.86359275 1201.8125 440.4375 C1202.59399414 439.94515869 1203.37548828 439.45281738 1204.18066406 438.94555664 C1205.77654641 437.94036014 1207.37257655 436.93539824 1208.96875 435.93066406 C1211.5434916 434.3082102 1214.11580665 432.68196831 1216.6875 431.0546875 C1217.97454834 430.24052368 1217.97454834 430.24052368 1219.28759766 429.40991211 C1220.92811948 428.37201477 1222.56843094 427.33378482 1224.20849609 426.29516602 C1226.2821544 424.98412668 1228.35919891 423.67866159 1230.4375 422.375 C1231.39914062 421.76785156 1232.36078125 421.16070312 1233.3515625 420.53515625 C1235.4375 419.375 1235.4375 419.375 1237.4375 419.375 C1237.7675 422.675 1238.0975 425.975 1238.4375 429.375 C1237.51453125 429.94605469 1236.5915625 430.51710938 1235.640625 431.10546875 C1228.88592785 435.29974021 1222.16798125 439.53520181 1215.53173828 443.91503906 C1126.02233049 502.86158759 1126.02233049 502.86158759 1085.625 502.625 C1084.73167969 502.63015625 1083.83835937 502.6353125 1082.91796875 502.640625 C1080.28505221 502.35867488 1078.66119323 501.79416602 1076.4375 500.375 C1074.63354201 496.76708402 1075.48301988 493.13257978 1076.4375 489.375 C1082.85508958 475.06660058 1094.41005239 463.12932828 1105.0546875 451.85498047 C1107.09777067 449.66833319 1109.07789183 447.42717225 1111.0625 445.1875 C1114.9272243 440.86769041 1118.99842625 436.79497055 1123.12109375 432.72265625 C1125.05147357 430.76623421 1126.85340816 428.78531847 1128.625 426.6875 C1132.74955427 421.85419177 1137.31094657 417.45044139 1141.84448242 413.00512695 C1144.88828168 410.00256192 1147.82198313 406.97523472 1150.59375 403.71875 C1156.39304844 396.99312942 1162.8734568 390.88549856 1169.18554688 384.64746094 C1177.87894263 376.0479246 1177.87894263 376.0479246 1186.06347656 366.96728516 C1187.86730029 364.87692653 1189.81755824 362.96954203 1191.8125 361.0625 C1199.83827161 353.13243606 1208.57031356 343.67532479 1213.4375 333.375 C1200.55839316 334.3992836 1188.8110817 344.04634432 1178.2109375 350.82421875 C1177.26422684 351.42829559 1176.31751617 352.03237244 1175.34211731 352.65475464 C1165.8158309 358.74796578 1156.35255761 364.93582566 1146.9128418 371.16210938 C1144.11008258 373.00983434 1141.30415095 374.85267241 1138.49804688 376.6953125 C1128.52324197 383.26011227 1118.65842814 389.94557814 1108.94311523 396.88916016 C1105.94051088 399.03178903 1102.89448205 401.09760011 1099.8125 403.125 C1077.93829102 417.56739383 1056.62754246 432.94982979 1035.4375 448.375 C1034.66116211 448.93977051 1033.88482422 449.50454102 1033.08496094 450.08642578 C1022.06876362 458.11406608 1011.22130131 466.33170651 1000.50390625 474.75390625 C998.55928524 476.27945959 996.60899546 477.79736768 994.65625 479.3125 C993.47879568 480.22869009 992.30170146 481.14534319 991.125 482.0625 C990.56433838 482.49908936 990.00367676 482.93567871 989.42602539 483.38549805 C985.93951198 486.12471964 982.57967023 488.97633229 979.24853516 491.90185547 C970.3227687 499.70059205 961.8637585 502.59479088 950.0625 503.6875 C947.02110016 503.32542859 945.66413432 502.43035476 943.4375 500.375 C944.68067851 495.08814946 946.55156201 491.18497705 949.8125 486.8125 C950.24804199 486.2153418 950.68358398 485.61818359 951.13232422 485.00292969 C955.35219435 479.30990335 959.95302525 473.96223496 964.61328125 468.62890625 C970.86545414 461.46892371 976.62625641 453.89329639 982.4375 446.375 C976.72761573 449.64129939 971.06674762 452.97546851 965.46875 456.4296875 C883.84530876 506.76839985 883.84530876 506.76839985 855.4375 502.375 C851.92840729 500.93946207 850.08408189 498.74770361 848.453125 495.28515625 C842.25949671 478.19424801 845.63782049 460.04818908 851.4375 443.375 C843.11399653 448.42677988 834.79964423 453.48609746 826.59521484 458.72973633 C814.74522139 466.29725621 802.64057579 473.3939243 790.4375 480.375 C789.54321289 480.8901416 788.64892578 481.4052832 787.72753906 481.93603516 C753.2683307 501.720575 753.2683307 501.720575 739.625 501.625 C738.87605469 501.63015625 738.12710937 501.6353125 737.35546875 501.640625 C735.4375 501.375 735.4375 501.375 733.4375 499.375 C732.11634335 477.28797089 747.0242063 457.50061794 760.87109375 441.74365234 C763.81656686 438.45992877 766.83226419 435.2453239 769.86621094 432.04345703 C771.4485583 430.36325786 773.01155402 428.6669308 774.5703125 426.96484375 C781.64538195 419.26210442 788.92762239 411.78115225 796.3125 404.375 C797.19220459 403.49070312 798.07190918 402.60640625 798.97827148 401.6953125 C803.42214349 397.261968 807.91758044 392.96213143 812.70166016 388.89648438 C814.52946156 387.2943946 816.23617995 385.61012785 817.9375 383.875 C821.59370672 380.16102026 825.49880374 376.78376258 829.4375 373.375 C848.0295621 358.42527578 848.0295621 358.42527578 859.4375 338.375 C846.25398057 345.79947622 833.54445127 353.73259328 821 362.1875 C819.27385367 363.34498315 817.54753363 364.50220729 815.82104492 365.65917969 C805.00664272 372.91769627 794.25677926 380.25780151 783.64453125 387.80957031 C779.52878719 390.72883479 775.3867883 393.61067762 771.25 396.5 C762.988805 402.27995692 754.74695979 408.0869191 746.51416016 413.90722656 C743.70010166 415.89618961 740.88477504 417.88335324 738.06933594 419.87036133 C736.64928781 420.87262388 735.2293657 421.87506501 733.80957031 422.87768555 C730.28272401 425.36810561 726.75433792 427.85628462 723.22265625 430.33984375 C715.09384863 436.06001128 707.00524709 441.83173168 698.95507812 447.66210938 C695.03641344 450.4999975 691.11051315 453.32645066 687.16625977 456.12866211 C679.35190651 461.68057404 671.62602158 467.34960691 663.92578125 473.05859375 C661.29258755 475.01076058 658.65069819 476.94650395 655.98046875 478.84765625 C650.58182241 482.74628552 645.85847492 486.84667422 641.25 491.625 C634.73394136 498.33563031 628.84866231 502.88635598 619.27734375 503.4609375 C613.60120089 503.28916977 608.02363467 502.34895143 602.4375 501.375 C602.1075 500.385 601.7775 499.395 601.4375 498.375 C602.44921875 496.7890625 602.44921875 496.7890625 604.125 495 C604.76824219 494.30261719 605.41148438 493.60523438 606.07421875 492.88671875 C606.85410156 492.05785156 607.63398437 491.22898437 608.4375 490.375 C609.40385663 489.3203947 610.3686039 488.26431324 611.33203125 487.20703125 C616.0790462 482.01003727 620.86706971 476.88891355 625.88671875 471.953125 C628.1365623 469.66361166 630.20385675 467.22930161 632.296875 464.796875 C634.52216994 462.27920554 636.80744598 459.82833273 639.10717773 457.37890625 C644.34687993 451.79789203 649.34290148 446.13265429 654.12890625 440.15234375 C656.79030645 436.95055772 659.59227882 433.91281529 662.4375 430.875 C671.39173826 421.8015353 671.39173826 421.8015353 678.4375 411.375 C661.50813614 421.13277015 661.50813614 421.13277015 645.359375 432.10546875 C639.57208065 436.33132763 633.61382314 440.22763317 627.5625 444.0625 C626.4811377 444.75093994 625.39977539 445.43937988 624.28564453 446.14868164 C614.05754218 452.6459619 603.77593349 459.05485083 593.4375 465.375 C592.77137695 465.78266602 592.10525391 466.19033203 591.41894531 466.61035156 C587.11452606 469.23772435 582.78290798 471.81610729 578.4375 474.375 C577.67566406 474.82697754 576.91382813 475.27895508 576.12890625 475.74462891 C566.07024939 481.69361732 555.90292716 487.29570662 545.375 492.375 C544.00311523 493.04184814 544.00311523 493.04184814 542.60351562 493.72216797 C533.05753973 498.23804268 523.21771635 502.75360209 512.4375 501.375 C510.76708217 499.70458217 511.14552662 497.80558548 511.0625 495.5 C511.28685062 478.16381587 519.20729787 461.23869545 525.4375 445.375 C519.175436 448.30541668 513.6811813 451.79781065 508.0625 455.8125 C507.19326904 456.42722168 506.32403809 457.04194336 505.4284668 457.67529297 C499.67866483 461.75061318 493.9604868 465.86983681 488.25 470 C487.5163623 470.53061035 486.78272461 471.0612207 486.02685547 471.60791016 C485.29740723 472.13562012 484.56795898 472.66333008 483.81640625 473.20703125 C483.09340332 473.72990723 482.37040039 474.2527832 481.62548828 474.79150391 C480.15946424 475.85249832 478.69430258 476.91468527 477.22998047 477.97802734 C446.47764562 500.26341476 446.47764562 500.26341476 433.484375 499.79296875 C429.98398981 499.07819544 428.48938962 497.1730313 426.4375 494.375 C423.82199018 488.84888538 424.05534199 483.63862519 424.0625 477.625 C424.06121094 476.51495605 424.05992187 475.40491211 424.05859375 474.26123047 C424.16402552 465.97165731 425.27741388 458.45576121 427.5625 450.5078125 C428.57200312 447.43554955 428.57200312 447.43554955 428.4375 444.375 C427.91768555 444.71007568 427.39787109 445.04515137 426.86230469 445.39038086 C403.86001574 460.18931773 380.68391996 474.68409055 356.4375 487.375 C355.6851709 487.77041992 354.9328418 488.16583984 354.15771484 488.57324219 C329.47026798 501.47338823 329.47026798 501.47338823 318.8125 501.5625 C318.03648437 501.57667969 317.26046875 501.59085937 316.4609375 501.60546875 C314.4375 501.375 314.4375 501.375 312.4375 499.375 C311.116252 477.28644368 326.02014757 457.52470783 339.85498047 441.75976562 C342.78566098 438.48802754 345.78808952 435.28692266 348.81005859 432.09960938 C350.50683947 430.30152055 352.18640415 428.48853108 353.86328125 426.671875 C360.89260968 419.0767597 368.06896826 411.64203754 375.375 404.3125 C376.15560791 403.5272998 376.93621582 402.74209961 377.74047852 401.93310547 C381.91795874 397.7667747 386.17311776 393.76100534 390.66430664 389.93383789 C392.50292921 388.31748031 394.22393656 386.62269101 395.9375 384.875 C398.8857574 381.88036551 401.97542187 379.11952906 405.15234375 376.37109375 C425.83238296 360.07360058 425.83238296 360.07360058 438.4375 338.375 C428.69262432 344.32026819 419.42083582 350.92909709 410.09570312 357.50341797 C406.65744998 359.92421597 403.21127688 362.33357997 399.76464844 364.74243164 C390.66242074 371.1042702 381.58203591 377.49654888 372.51416016 383.90722656 C368.98982484 386.39820986 365.46355299 388.88644903 361.9375 391.375 C360.52082432 392.37498722 359.10415764 393.37498722 357.6875 394.375 C315.1875 424.375 315.1875 424.375 313.06274414 425.87475586 C311.64517346 426.87544188 310.22769308 427.87625583 308.81030273 428.87719727 C305.28319428 431.36775451 301.75457783 433.85611592 298.22265625 436.33984375 C290.16682533 442.0087618 282.14994813 447.72683632 274.17919922 453.51489258 C270.46974844 456.20394298 266.74668297 458.86746314 262.98046875 461.4765625 C248.30430917 471.6485466 235.3455312 483.1888238 222.3125 495.359375 C213.99332007 502.86149262 205.14247004 503.61056585 194.39453125 503.54296875 C190.5061098 503.32209408 187.15271029 502.51814163 183.4375 501.375 C183.77431337 495.52434297 185.35868512 492.61666065 189.5390625 488.72265625 C190.05375092 488.21882919 190.56843933 487.71500214 191.09872437 487.19590759 C192.73965989 485.59492875 194.39982346 484.01585888 196.0625 482.4375 C198.22638974 480.35022799 200.38257862 478.2550748 202.5390625 476.16015625 C203.3232254 475.4029277 203.3232254 475.4029277 204.12322998 474.63040161 C207.55627034 471.2975446 210.75139762 467.84650554 213.84521484 464.20092773 C216.70340761 460.92334053 219.83405143 457.91803308 222.9375 454.875 C227.45697185 450.40407716 231.86330628 445.92200481 235.96875 441.0625 C238.05549267 438.66496587 240.32758644 436.47341592 242.59521484 434.24853516 C244.37542329 432.43812969 246.04004876 430.57310562 247.6953125 428.6484375 C251.30115301 424.50105352 255.03609751 420.49177735 258.8125 416.5 C263.71091918 411.2988459 268.56668294 406.06923004 273.32421875 400.73828125 C275.71964327 398.05947934 278.14030427 395.40461031 280.5625 392.75 C283.95490335 389.0235754 287.29925175 385.2632157 290.6015625 381.45703125 C292.80382979 378.95956643 295.05890035 376.513723 297.3125 374.0625 C301.42871976 369.5545554 305.30563566 364.90537667 309.12890625 360.1484375 C312.3830622 356.23904541 315.86028164 352.5639457 319.37109375 348.8828125 C321.41682338 346.40009337 322.32898408 344.35776867 323.4375 341.375 C311.0475041 346.96434534 300.04677733 354.34424047 288.8125 361.9375 C287.0226064 363.13677094 285.23224367 364.33534202 283.44140625 365.53320312 C272.04603886 373.17323549 260.77862942 380.98699736 249.55981445 388.88339233 C244.97045131 392.10889421 240.35829477 395.30163526 235.75 398.5 C226.96083699 404.60764832 218.2005618 410.75428892 209.46582031 416.93945312 C206.67098426 418.91750271 203.87351939 420.89181721 201.07592773 422.8659668 C199.65340239 423.86980618 198.23103836 424.87387422 196.80883789 425.87817383 C193.28225375 428.36845674 189.75409802 430.85645333 186.22265625 433.33984375 C178.09601312 439.05848815 170.00906613 444.82801035 161.96166992 450.65771484 C157.9916435 453.5333202 154.01233773 456.39424569 150.01391602 459.23022461 C143.0163093 464.19552311 136.13440283 469.30359662 129.2890625 474.4765625 C126.84051415 476.326115 124.37944102 478.1551704 121.8984375 479.9609375 C120.83882812 480.73695313 119.77921875 481.51296875 118.6875 482.3125 C117.76453125 482.98152344 116.8415625 483.65054687 115.890625 484.33984375 C113.31944207 486.47294296 111.49442327 488.7526277 109.4375 491.375 C102.76545388 497.66076976 95.26474355 503.47376684 85.75 503.3125 C82.1038116 502.28055989 78.86565482 500.98413389 75.4375 499.375 C76.95616698 495.97756975 78.94029002 493.35881716 81.3125 490.5 C82.11300781 489.53449219 82.91351562 488.56898438 83.73828125 487.57421875 C87.14344918 483.52165165 90.60215351 479.51500158 94.05737305 475.50512695 C97.64228009 471.33390066 101.11903342 467.09156021 104.53125 462.77734375 C106.53844075 460.24778983 108.57715331 457.74674062 110.625 455.25 C114.87938738 450.06154472 119.11456123 444.85775523 123.34277344 439.64794922 C126.20669019 436.11934358 129.07403912 432.59365603 131.94921875 429.07421875 C132.52317383 428.37063232 133.09712891 427.6670459 133.68847656 426.94213867 C134.77381853 425.61185633 135.86031519 424.2825148 136.94824219 422.9543457 C140.56621403 418.51574889 144.03237279 413.97868964 147.4375 409.375 C140.25384636 413.10665246 133.35803902 417.20270482 126.5 421.5 C125.67137451 422.0146582 124.84274902 422.52931641 123.98901367 423.05957031 C120.01999468 425.5670016 116.7232093 428.00748881 113.4375 431.375 C111.06388295 433.01672787 108.68887837 434.58711405 106.25 436.125 C105.51370361 436.59470215 104.77740723 437.0644043 104.01879883 437.54833984 C102.38118794 438.59293887 100.7423692 439.63564605 99.10253906 440.67675781 C96.30796107 442.45754606 93.52430207 444.25449572 90.7421875 446.0546875 C68.12823085 460.66136767 45.30239571 474.88378558 21.4375 487.375 C20.6851709 487.77041992 19.9328418 488.16583984 19.15771484 488.57324219 C-5.40583157 501.40864545 -5.40583157 501.40864545 -16.1875 501.625 C-16.96351563 501.65078125 -17.73953125 501.6765625 -18.5390625 501.703125 C-19.54066406 501.54070312 -19.54066406 501.54070312 -20.5625 501.375 C-23.8735812 496.4083782 -22.58245907 491.05874136 -21.5625 485.375 C-18.46813184 471.66893624 -13.61637213 458.45824887 -8.5625 445.375 C-15.03339373 448.79526061 -21.03975802 452.63405859 -27 456.875 C-27.86399414 457.48448486 -28.72798828 458.09396973 -29.61816406 458.72192383 C-35.37878093 462.79526254 -41.10036093 466.92158871 -46.8125 471.0625 C-86.84147656 500.03618752 -86.84147656 500.03618752 -100.18359375 499.7578125 C-102.5625 499.375 -102.5625 499.375 -105.625 497.1875 C-107.56643106 494.36929363 -108.02415902 492.67719468 -108.5625 489.375 C-109.12606201 489.56497559 -109.68962402 489.75495117 -110.27026367 489.95068359 C-163.56155043 507.77261833 -218.82926744 520.34388191 -274.5625 527.375 C-275.56297363 527.50777344 -276.56344727 527.64054688 -277.59423828 527.77734375 C-291.73407359 529.60415608 -305.95247511 529.60199869 -320.1875 529.6875 C-321.61107819 529.70207748 -321.61107819 529.70207748 -323.06341553 529.71694946 C-352.87612547 529.97576161 -380.52610691 523.92761108 -407.5625 511.375 C-407.90087891 512.17744141 -407.90087891 512.17744141 -408.24609375 512.99609375 C-409.98897773 516.14569715 -412.27461673 518.73493944 -414.625 521.4375 C-415.62837484 522.60610957 -416.63096857 523.77539022 -417.6328125 524.9453125 C-418.13071289 525.52571289 -418.62861328 526.10611328 -419.14160156 526.70410156 C-421.13132016 529.04390123 -423.06670597 531.42597953 -425 533.8125 C-428.95720275 538.6758243 -433.02543686 543.43450288 -437.12084961 548.18115234 C-440.16545688 551.71810587 -443.13898861 555.29899941 -446.0625 558.9375 C-450.41502851 564.3029806 -455.07785566 569.33888955 -459.7890625 574.38671875 C-461.92604314 576.6785841 -464.01473348 579.00258757 -466.0625 581.375 C-474.72566881 591.37537084 -483.89741206 600.91802386 -493.234375 610.28710938 C-494.93697184 611.99946882 -496.6285408 613.72226599 -498.3203125 615.4453125 C-509.46548474 626.69771448 -521.95487369 638.75950984 -537.375 643.5625 C-540.85444199 643.35782694 -542.74180641 642.58751066 -545.27734375 640.16015625 C-550.6158646 632.74464249 -550.71036687 621.8303652 -550.80078125 613.07421875 C-550.81062042 612.28897827 -550.82045959 611.50373779 -550.83059692 610.69470215 C-551.10877493 582.67007815 -547.68707085 557.28267546 -539.5625 530.375 C-539.26359863 529.38322754 -538.96469727 528.39145508 -538.65673828 527.36962891 C-526.10738235 486.45017682 -502.91100637 416.78382631 -464.5625 391.375 C-461.75 391.125 -461.75 391.125 -459.5625 391.375 C-459.54832031 392.18839844 -459.53414063 393.00179688 -459.51953125 393.83984375 C-458.40140549 420.70508158 -444.87692813 445.26586296 -426.5625 464.375 C-425.758125 465.220625 -424.95375 466.06625 -424.125 466.9375 C-421.63632622 469.30477505 -419.1438477 471.66481828 -416.625 474 C-415.81160156 474.75539063 -414.99820313 475.51078125 -414.16015625 476.2890625 C-411.43545219 478.47702035 -408.7327725 479.92599627 -405.5625 481.375 C-405.32144531 480.66730469 -405.08039063 479.95960938 -404.83203125 479.23046875 C-403.36322504 475.92678464 -401.50701962 473.513392 -399.25 470.6875 C-395.12173653 465.44241899 -391.14492124 460.10807354 -387.25 454.6875 C-386.429552 453.54631714 -386.429552 453.54631714 -385.5925293 452.38208008 C-384.47309899 450.82362549 -383.35420528 449.26478533 -382.23583984 447.70556641 C-379.51973936 443.9226812 -376.79060015 440.1492354 -374.0625 436.375 C-372.97910127 434.87504724 -371.895768 433.37504718 -370.8125 431.875 C-351.3125 404.875 -351.3125 404.875 -349.68676758 402.62402344 C-348.60582809 401.12731299 -347.52493599 399.63056832 -346.4440918 398.13378906 C-343.6995246 394.33317363 -340.95408034 390.53319702 -338.20703125 386.734375 C-333.30904666 379.95959258 -328.41505912 373.18241898 -323.5625 366.375 C-318.15451881 358.78840642 -312.69522873 351.23909859 -307.23583984 343.68945312 C-305.04983752 340.66591913 -302.86538938 337.64126449 -300.68115234 334.61645508 C-299.59961318 333.11877619 -298.51790669 331.62121811 -297.43603516 330.1237793 C-294.73708827 326.38792827 -292.04022458 322.65060767 -289.34765625 318.91015625 C-282.07470651 308.81233148 -274.72413575 298.77446179 -267.32861328 288.76611328 C-264.98663959 285.59535156 -262.64843199 282.42182387 -260.31054688 279.24804688 C-258.56034024 276.87206804 -256.80946682 274.49658151 -255.05859375 272.12109375 C-252.73594521 268.96915926 -250.41584223 265.81537412 -248.09765625 262.66015625 C-241.50205703 253.68776452 -234.85962202 244.75304792 -228.16601562 235.85351562 C-223.9491418 230.24119234 -219.77661734 224.59820666 -215.625 218.9375 C-204.07589738 203.21297776 -192.15955899 187.76482079 -180.14257812 172.39599609 C-178.66102635 170.50101995 -177.1819346 168.60414748 -175.703125 166.70703125 C-166.51346732 154.93992708 -157.13423343 143.32734306 -147.44970703 131.96337891 C-144.56467616 128.57513268 -141.73745149 125.14626361 -138.9375 121.6875 C-135.35966785 117.28842167 -131.6169148 113.07949622 -127.796875 108.890625 C-125.55068434 106.36169705 -123.42718782 103.76450086 -121.3125 101.125 C-116.65242018 95.36121707 -111.62675479 89.98736378 -106.55859375 84.5859375 C-104.32335267 82.20140515 -102.1354972 79.7873794 -100 77.3125 C-95.51522526 72.1207657 -90.81672485 67.12295068 -86.15185547 62.09375 C-84.5864726 60.40092428 -83.02840623 58.70167883 -81.47265625 57 C-72.92235096 47.65782218 -64.23048642 38.5776296 -54.5625 30.375 C-53.59570312 29.53066406 -52.62890625 28.68632813 -51.6328125 27.81640625 C-37.83617523 15.83068291 -19.22400491 0.22696582 0 0 Z M1346.4375 61.375 C1345.26997292 62.35729603 1344.10197683 63.33903479 1342.93359375 64.3203125 C1337.19097809 69.16688473 1331.5796186 74.03504935 1326.36206055 79.45336914 C1324.52789563 81.28474197 1322.63267972 82.96140921 1320.65625 84.63671875 C1316.60539942 88.15686784 1312.94129213 91.92665752 1309.3125 95.875 C1308.00529265 97.28523441 1306.69799887 98.69538872 1305.390625 100.10546875 C1304.73513672 100.81493652 1304.07964844 101.5244043 1303.40429688 102.25537109 C1301.50486379 104.30240163 1299.59159795 106.33528431 1297.671875 108.36328125 C1291.72545848 114.65536409 1285.98544798 120.99645771 1280.578125 127.765625 C1278.28629535 130.55931516 1275.88518188 133.21708778 1273.4375 135.875 C1269.38087913 140.28790344 1265.55076307 144.83000762 1261.78515625 149.4921875 C1259.2093449 152.65516383 1256.58034256 155.76808416 1253.9375 158.875 C1249.88591039 163.64526278 1245.8920026 168.45726646 1241.9375 173.30859375 C1233.05241936 184.20670048 1224.09563859 195.03105662 1214.90527344 205.67333984 C1212.40875787 208.5676701 1209.92380025 211.47189544 1207.4375 214.375 C1206.4375536 215.5417126 1205.43755363 216.70837931 1204.4375 217.875 C1203.9425 218.4525 1203.4475 219.03 1202.9375 219.625 C1150.4375 280.875 1150.4375 280.875 1148.93725586 282.62524414 C1147.93801604 283.79105104 1146.93882977 284.95690386 1145.93969727 286.12280273 C1143.42850539 289.05300398 1140.91636607 291.98238291 1138.40234375 294.91015625 C1131.7129987 302.7029206 1125.06085076 310.52606858 1118.4375 318.375 C1122.85358778 318.375 1125.3820861 315.7155503 1128.75 313.125 C1129.81480591 312.31615356 1129.81480591 312.31615356 1130.90112305 311.4909668 C1136.85000872 306.92646716 1142.55211046 302.10929226 1148.19921875 297.1796875 C1151.09755749 294.65187745 1154.06506382 292.22245584 1157.0625 289.8125 C1162.11990478 285.70847933 1166.89882012 281.35186011 1171.671875 276.92578125 C1173.87805947 274.89098117 1176.10382261 272.89853762 1178.375 270.9375 C1183.56597567 266.4301096 1188.58821938 261.73798502 1193.62402344 257.05908203 C1195.49987208 255.31707827 1197.37884543 253.5784829 1199.2578125 251.83984375 C1205.63188796 245.92898649 1211.93787092 239.99064025 1217.99609375 233.75390625 C1219.86075479 231.93698054 1221.72567137 230.27532752 1223.70898438 228.59912109 C1230.28798169 222.85675122 1236.36892597 216.5872131 1242.53515625 210.41015625 C1243.89686258 209.04912487 1245.25871722 207.68824185 1246.62071228 206.32749939 C1249.46401919 203.48566045 1252.30552599 200.64203718 1255.14575195 197.79711914 C1258.76896031 194.16821408 1262.39664043 190.5438178 1266.02568913 186.92075443 C1268.83549146 184.1145821 1271.6428874 181.30601201 1274.44958305 178.49673271 C1275.7855657 177.16008754 1277.12227894 175.82417216 1278.45976448 174.48903084 C1287.51685861 165.49674146 1287.51685861 165.49674146 1296.03404236 155.99864197 C1298.81549699 152.78081313 1301.90240823 149.85102213 1304.9375 146.875 C1309.41349416 142.44698239 1313.77205516 138.00945004 1317.8359375 133.1953125 C1319.77787422 130.98813564 1321.84488124 128.93962386 1323.9375 126.875 C1327.28683729 123.56513302 1330.43675956 120.16753051 1333.5 116.59375 C1335.4232634 114.3913032 1337.39795744 112.24242145 1339.38696289 110.09936523 C1344.14833239 104.9661539 1348.6877662 99.7233586 1353.07421875 94.26171875 C1354.75644155 92.20690445 1356.45304148 90.19809545 1358.20703125 88.20703125 C1379.19431904 65.39981943 1379.19431904 65.39981943 1389.4375 37.375 C1388.40149085 36.12199445 1388.40149085 36.12199445 1386.14453125 36.19921875 C1372.48354673 37.08629567 1356.3261729 52.91484506 1346.4375 61.375 Z M-10.5625 368.375 C-11.48417969 369.10203125 -12.40585937 369.8290625 -13.35546875 370.578125 C-30.81621427 384.58703483 -47.97172989 400.55539926 -61.5625 418.375 C-62.35527344 419.36242187 -63.14804687 420.34984375 -63.96484375 421.3671875 C-77.30472347 438.07368803 -92.41123069 459.2518639 -92.5625 481.375 C-92.2325 482.035 -91.9025 482.695 -91.5625 483.375 C-85.80142715 483.79871762 -81.94755892 482.56771669 -77 479.8125 C-75.9162207 479.22335815 -75.9162207 479.22335815 -74.81054688 478.62231445 C-65.53636356 473.43640246 -56.85810222 467.31328223 -48.17382812 461.20898438 C-45.79575742 459.53882103 -43.40808016 457.88383166 -41.015625 456.234375 C-31.27633098 449.48586143 -21.91538003 442.30755207 -12.609375 434.9765625 C-10.22277257 433.10918274 -7.81099119 431.27733554 -5.39428711 429.44921875 C7.16320704 419.92885893 19.034924 409.74213438 29.32421875 397.7734375 C32.13486974 394.58353047 35.03629414 391.48244109 37.9375 388.375 C42.52859387 383.44869568 47.05534083 378.48906314 51.4375 373.375 C52.31354686 372.36436205 53.1898753 371.35396813 54.06640625 370.34375 C73.73487139 350.75126596 73.73487139 350.75126596 84.4375 327.375 C57.12805547 313.72027774 9.07735312 352.78538896 -10.5625 368.375 Z M504.4375 384.375 C502.72989653 385.89665278 501.02155458 387.41747722 499.3125 388.9375 C492.20818371 395.34139074 485.58530717 402.04800449 479.4375 409.375 C478.97714355 409.9215625 478.51678711 410.468125 478.04248047 411.03125 C452.20377404 441.12659475 452.20377404 441.12659475 441.3125 478.0625 C441.30992187 478.85011719 441.30734375 479.63773438 441.3046875 480.44921875 C441.22622222 482.38264914 441.22622222 482.38264914 442.4375 483.375 C448.92355166 483.4536563 453.79516816 481.63101586 459.25 478.3125 C460.29172363 477.70088013 460.29172363 477.70088013 461.35449219 477.0769043 C467.53986415 473.40745876 473.53524403 469.48252107 479.4375 465.375 C480.16453125 464.87339355 480.8915625 464.37178711 481.640625 463.85498047 C493.10128934 455.94573571 504.37344155 447.82963871 515.4375 439.375 C516.02644043 438.92640625 516.61538086 438.4778125 517.22216797 438.015625 C520.97591496 435.15482595 524.7115274 432.27188201 528.4375 429.375 C529.29730469 428.71113281 530.15710937 428.04726563 531.04296875 427.36328125 C544.93927421 416.47158238 558.25692977 403.90774544 569.67578125 390.41796875 C571.52851246 388.26945783 573.44658609 386.18833234 575.37670898 384.109375 C580.21858249 378.89289642 584.8116019 373.54970365 589.2734375 368 C591.33536082 365.49889446 593.4817104 363.12423172 595.6875 360.75 C599.76952371 356.26552325 603.49831181 351.5575969 607.1875 346.75 C607.73051758 346.04536621 608.27353516 345.34073242 608.83300781 344.61474609 C615.516024 336.73085508 615.516024 336.73085508 618.4375 327.375 C585.32636679 310.8194334 525.57812767 364.9241844 504.4375 384.375 Z M-478.5625 427.375 C-513.87732789 477.41104316 -534.91849293 549.97083371 -527.1953125 611.08203125 C-526.64858323 613.92704836 -526.03763711 615.91437214 -524.5625 618.375 C-510.43251968 616.97639933 -496.30113594 597.79267516 -487.5625 587.375 C-486.74523437 586.42367187 -485.92796875 585.47234375 -485.0859375 584.4921875 C-479.34067187 577.79057861 -473.80978491 570.94836914 -468.38671875 563.984375 C-465.94634306 560.85371428 -463.46758213 557.75564233 -460.97827148 554.66381836 C-455.35283293 547.67636584 -449.90949667 540.57871671 -444.5625 533.375 C-443.60649682 532.1046944 -442.64940396 530.83520836 -441.69140625 529.56640625 C-439.14023528 526.18693302 -436.60192257 522.79818829 -434.07324219 519.40185547 C-433.06359464 518.04728308 -432.0512074 516.69474859 -431.03613281 515.34423828 C-429.59677392 513.42462364 -428.17166906 511.49523655 -426.75 509.5625 C-426.31115479 508.98193848 -425.87230957 508.40137695 -425.42016602 507.80322266 C-424.08430559 506.01890172 -424.08430559 506.01890172 -422.5625 503.375 C-423.86880677 499.4560797 -425.65312137 498.62905513 -429 496.25 C-452.82541212 478.86360017 -467.50318915 454.73913931 -477.5625 427.375 C-477.8925 427.375 -478.2225 427.375 -478.5625 427.375 Z " fill="#363636" transform="translate(570.5625,9.625)"/>
<path d="M0 0 C4.95 0 9.9 0 15 0 C18.75538289 3.98474259 21.20426669 7.27680962 23.75 11.9375 C24.462155 13.1424826 25.17982808 14.34422008 25.90283203 15.54272461 C27.32863731 17.92005144 28.72635625 20.31027943 30.10058594 22.71777344 C32.54246088 26.93738355 35.18288802 31.00022503 37.875 35.0625 C38.73363616 36.38811656 39.59043474 37.71492533 40.4453125 39.04296875 C42.2496953 41.83913217 44.0573091 44.63317169 45.8671875 47.42578125 C46.34945801 48.17013428 46.83172852 48.9144873 47.32861328 49.68139648 C48.2303433 51.07302208 49.13233069 52.46448097 50.03466797 53.85571289 C53.72265853 59.55034126 57.35711337 65.27546387 61 71 C61.33 47.57 61.66 24.14 62 0 C66.95 0 71.9 0 77 0 C77 32.01 77 64.02 77 97 C61 97 61 97 56.71875 92.84765625 C55.58728077 90.95303284 54.51695495 89.02097469 53.5 87.0625 C52.26675791 84.94595407 51.03234117 82.83009222 49.796875 80.71484375 C49.17876953 79.60995605 48.56066406 78.50506836 47.92382812 77.36669922 C44.75042825 71.81324944 41.23463689 66.4863604 37.75 61.125 C36.41487436 59.03890643 35.08150069 56.9516904 33.75 54.86328125 C30.43147572 49.67006111 27.09808435 44.48670744 23.75 39.3125 C23.32041992 38.64814941 22.89083984 37.98379883 22.44824219 37.29931641 C19.99442256 33.51198499 17.5038382 29.7557573 15 26 C14.67 49.43 14.34 72.86 14 97 C9.38 97 4.76 97 0 97 C0 64.99 0 32.98 0 0 Z " fill="#373737" transform="translate(131,819)"/>
<path d="M0 0 C15 0 15 0 18.08984375 2.40234375 C18.69957031 3.56894531 19.30929687 4.73554687 19.9375 5.9375 C20.71886023 7.31912173 21.50292157 8.69921788 22.2890625 10.078125 C22.70833008 10.85478516 23.12759766 11.63144531 23.55957031 12.43164062 C26.40112406 17.49827545 29.65273444 22.31566876 32.8125 27.1875 C34.19425256 29.34927416 35.57446324 31.51203464 36.953125 33.67578125 C41.12411068 40.20510018 45.33959899 46.70474771 49.57543945 53.19213867 C53.42994047 59.10056848 57.2116963 65.04695133 61 71 C61.33 47.57 61.66 24.14 62 0 C66.95 0 71.9 0 77 0 C77 32.01 77 64.02 77 97 C61 97 61 97 57.15625 93.50390625 C56.21195817 91.88980257 55.32917341 90.2386531 54.5 88.5625 C53.45259508 86.72277586 52.40301081 84.88429124 51.3515625 83.046875 C50.81563477 82.06525391 50.27970703 81.08363281 49.72753906 80.07226562 C46.68734158 74.66556054 43.25450529 69.51109801 39.875 64.3125 C38.51911069 62.19511254 37.16491163 60.07664165 35.8125 57.95703125 C32.51227178 52.7967193 29.20109266 47.64367762 25.875 42.5 C25.46233887 41.86102783 25.04967773 41.22205566 24.62451172 40.5637207 C21.46043845 35.67796228 18.22967387 30.84451081 15 26 C14.67 49.43 14.34 72.86 14 97 C9.38 97 4.76 97 0 97 C0 64.99 0 32.98 0 0 Z " fill="#363636" transform="translate(1067,819)"/>
<path d="M0 0 C15 0 15 0 18.08984375 2.40234375 C18.69957031 3.56894531 19.30929687 4.73554687 19.9375 5.9375 C20.71886023 7.31912173 21.50292157 8.69921788 22.2890625 10.078125 C22.70833008 10.85478516 23.12759766 11.63144531 23.55957031 12.43164062 C26.40112406 17.49827545 29.65273444 22.31566876 32.8125 27.1875 C34.19425256 29.34927416 35.57446324 31.51203464 36.953125 33.67578125 C41.12411068 40.20510018 45.33959899 46.70474771 49.57543945 53.19213867 C53.42994047 59.10056848 57.2116963 65.04695133 61 71 C61.33 47.57 61.66 24.14 62 0 C66.95 0 71.9 0 77 0 C77 32.01 77 64.02 77 97 C61 97 61 97 57.15625 93.50390625 C56.21198885 91.88978462 55.32923871 90.23862079 54.5 88.5625 C53.44994644 86.71889451 52.39776157 84.87650176 51.34375 83.03515625 C50.8075 82.05305176 50.27125 81.07094727 49.71875 80.05908203 C46.71962481 74.7211504 43.33519586 69.63192369 40 64.5 C38.6495455 62.39027988 37.30057679 60.27960793 35.953125 58.16796875 C32.24113025 52.36820418 28.50366121 46.58537207 24.75 40.8125 C24.22535156 40.00554688 23.70070313 39.19859375 23.16015625 38.3671875 C20.46414968 34.22764985 17.7405512 30.11082681 15 26 C14.67 49.43 14.34 72.86 14 97 C9.38 97 4.76 97 0 97 C0 64.99 0 32.98 0 0 Z " fill="#363636" transform="translate(237,819)"/>
<path d="M0 0 C57.55599442 0 57.55599442 0 71.8125 13 C81.82460131 23.81306942 85.55104621 37.33246376 85.25 51.8203125 C84.12373116 66.14504433 79.52519788 77.16163161 69 87 C49.48118945 102.27559086 22.79966429 97 0 97 C0 64.99 0 32.98 0 0 Z M15 12 C15 36.09 15 60.18 15 85 C39.08880385 86.04719418 39.08880385 86.04719418 60.04296875 76.24609375 C67.88457721 67.96976926 70.3028185 57.78356931 70.15234375 46.6484375 C69.59486835 36.95694214 66.76434251 28.15087637 60 21 C47.34780069 9.9044849 31.06075614 12 15 12 Z " fill="#373737" transform="translate(1173,819)"/>
<path d="M0 0 C9.27744337 8.46980879 14.52457409 20.4857217 15.25 32.8671875 C15.82503976 48.7953082 12.28517385 62.49832772 1.4375 74.59765625 C-9.53098216 85.01665761 -23.66287815 88.02883693 -38.25 87.72265625 C-48.59387405 87.23473766 -56.9285298 83.65649623 -65.0625 77.41015625 C-65.92875 76.83265625 -66.795 76.25515625 -67.6875 75.66015625 C-76.89222013 66.93989507 -82.03976527 54.95045749 -83.0625 42.41015625 C-83.19594006 27.86518995 -80.40891992 15.87350034 -71.0625 4.41015625 C-70.56234375 3.77335938 -70.0621875 3.1365625 -69.546875 2.48046875 C-51.83794523 -17.64331508 -19.64638757 -15.14409042 0 0 Z M-51.0625 5.41015625 C-52.02929688 5.93609375 -52.02929688 5.93609375 -53.015625 6.47265625 C-60.21083774 10.9774851 -65.15878444 19.22137974 -67.0625 27.41015625 C-69.15203253 40.80057721 -67.30145602 51.79879157 -59.90625 63.19140625 C-55.46331671 69.07529088 -49.05582785 72.49904126 -42.0625 74.41015625 C-30.6233751 75.43919887 -20.88929061 74.6261257 -11.75 67.09765625 C-4.58907287 60.29766295 -0.18887997 52.77457129 0.37109375 42.7265625 C0.39407373 41.14209318 0.3950101 39.55716586 0.375 37.97265625 C0.36887695 37.1422583 0.36275391 36.31186035 0.35644531 35.45629883 C0.19485274 29.11379037 -0.83272042 23.9501254 -4.0625 18.41015625 C-4.92875 16.83234375 -4.92875 16.83234375 -5.8125 15.22265625 C-11.2603387 8.41285788 -17.42958745 3.37376624 -26.0625 1.41015625 C-35.14341526 0.45994182 -43.01137047 0.94383622 -51.0625 5.41015625 Z " fill="#363636" transform="translate(420.0625,829.58984375)"/>
<path d="M0 0 C53.72162741 0 53.72162741 0 64 10 C70.10266553 17.51097297 70.74567918 25.64844967 70 35 C68.80134199 42.46490977 64.82004068 48.24682222 59 53 C55.72616892 54.7978975 52.38638624 56.42584521 49 58 C49.44802979 58.72477539 49.89605957 59.44955078 50.35766602 60.19628906 C52.05677127 62.94653385 53.75451706 65.69761222 55.45141602 68.44921875 C56.1790823 69.62857857 56.90725342 70.80762709 57.63598633 71.98632812 C72 95.22252415 72 95.22252415 72 97 C66.18676333 98.74828776 60.60877705 99.88598111 55 97 C48.7878128 90.21544501 44.80673591 81.51972181 40.72119141 73.34863281 C38.69044439 69.39774969 36.42587631 65.64052297 34.05541992 61.88623047 C33 60 33 60 33 58 C27.06 58 21.12 58 15 58 C15 70.87 15 83.74 15 97 C10.05 97 5.1 97 0 97 C0 64.99 0 32.98 0 0 Z M15 12 C15 23.22 15 34.44 15 46 C18.939375 46.061875 22.87875 46.12375 26.9375 46.1875 C28.16073975 46.21481201 29.38397949 46.24212402 30.64428711 46.27026367 C37.5287081 46.32222789 45.15100386 46.37361054 50.61694336 41.58276367 C54.78492713 36.81294217 55.34734573 32.6599037 55.28515625 26.57421875 C54.75651483 21.80196262 52.57353655 18.69009481 49.3125 15.1875 C42.05289201 11.45959319 33.89497825 11.7454983 25.9375 11.875 C20.5234375 11.936875 20.5234375 11.936875 15 12 Z " fill="#363636" transform="translate(1568,819)"/>
<path d="M0 0 C8.58 0 17.16 0 26 0 C27.28132812 3.59003906 28.56265625 7.18007813 29.8828125 10.87890625 C30.94358032 13.85031429 32.00441855 16.82169718 33.06529617 19.79306602 C34.20760683 22.99260219 35.34976496 26.19219265 36.49157715 29.39190674 C41.12575227 42.37810947 45.7626885 55.3631951 50.4453125 68.33203125 C50.94135483 69.70727715 50.94135483 69.70727715 51.44741821 71.11030579 C52.97308176 75.33996328 54.50164024 79.56852636 56.03564453 83.79516602 C56.57077992 85.27745529 57.10578231 86.75979259 57.640625 88.2421875 C58.00475998 89.23971794 58.00475998 89.23971794 58.37625122 90.25740051 C60 94.77273653 60 94.77273653 60 97 C55.05 97 50.1 97 45 97 C42.85349231 91.71039176 40.74665111 86.41067261 38.75 81.0625 C38.24726562 79.71865234 38.24726562 79.71865234 37.734375 78.34765625 C37 76 37 76 37 73 C21.16 73 5.32 73 -11 73 C-11.66 75.97 -12.32 78.94 -13 82 C-13.80746646 84.51547185 -14.65856808 87.01756011 -15.5625 89.5 C-15.99691406 90.7065625 -16.43132813 91.913125 -16.87890625 93.15625 C-18 96 -18 96 -19 97 C-21.53049402 97.07313567 -24.03304837 97.09247527 -26.5625 97.0625 C-27.27341797 97.05798828 -27.98433594 97.05347656 -28.71679688 97.04882812 C-30.47790013 97.03700864 -32.23896036 97.01907263 -34 97 C-31.9989838 89.15073261 -29.52445478 81.57992917 -26.71875 73.984375 C-26.10299103 72.29995049 -26.10299103 72.29995049 -25.47479248 70.58149719 C-24.60234542 68.19613444 -23.72793332 65.8114896 -22.85168457 63.42752075 C-20.58510869 57.26086027 -18.33252005 51.08909028 -16.078125 44.91796875 C-15.63660095 43.71059555 -15.1950769 42.50322235 -14.74017334 41.25926208 C-9.72719332 27.54052402 -4.85370275 13.77595045 0 0 Z M11 12 C8.57671422 18.67440601 6.15589225 25.34970176 3.73681641 32.02563477 C2.91284574 34.29862924 2.08830222 36.57141613 1.26318359 38.84399414 C0.08021313 42.10248841 -1.10072394 45.36171323 -2.28125 48.62109375 C-2.65310425 49.64400009 -3.0249585 50.66690643 -3.40808105 51.72080994 C-3.74843384 52.66170975 -4.08878662 53.60260956 -4.43945312 54.57202148 C-4.7414563 55.40475082 -5.04345947 56.23748016 -5.35461426 57.09544373 C-6.0534897 58.82269428 -6.0534897 58.82269428 -6 60 C6.54 60 19.08 60 32 60 C24.63326941 35.58572554 24.63326941 35.58572554 15 12 C13.68 12 12.36 12 11 12 Z " fill="#363636" transform="translate(572,819)"/>
<path d="M0 0 C4.95 0 9.9 0 15 0 C15.0093457 2.04832031 15.01869141 4.09664062 15.02832031 6.20703125 C15.06218145 12.99651871 15.11778076 19.78570514 15.18390274 26.57495117 C15.22330786 30.68881763 15.25553019 34.80247228 15.27099609 38.91650391 C15.28620901 42.89142474 15.32073543 46.865763 15.36830902 50.84042358 C15.38307534 52.35211099 15.39103828 53.86388159 15.39188385 55.37564087 C15.27063323 67.91327285 15.27063323 67.91327285 21.41143799 78.50390625 C27.76679385 84.21388961 34.11444815 84.53134691 42.32421875 84.3125 C48.60832337 83.77825094 52.64373019 81.7453521 56.875 77.125 C60.42554829 71.90360546 61.24913395 67.32765583 61.31884766 61.07666016 C61.33391609 60.08048172 61.33391609 60.08048172 61.34928894 59.06417847 C61.37995262 56.88914788 61.39710855 54.71423941 61.4140625 52.5390625 C61.43278775 51.02305055 61.45236216 49.50704888 61.4727478 47.99105835 C61.52393191 44.01603266 61.56363069 40.04097323 61.60089111 36.0657959 C61.64101715 32.0034154 61.69207013 27.94117359 61.7421875 23.87890625 C61.83878425 15.91935888 61.92222975 7.9597536 62 0 C66.95 0 71.9 0 77 0 C77.09087947 8.64158913 77.16404608 17.28279792 77.20724869 25.92473888 C77.22799852 29.93885949 77.25608078 33.95263224 77.30175781 37.96655273 C77.34567179 41.85047568 77.36923149 45.73406705 77.37950897 49.61821938 C77.38681967 51.08959475 77.40109206 52.56095489 77.42292023 54.03218651 C77.58306434 65.28818393 77.08926355 77.89169428 68.875 86.5 C61.34666525 94.12739179 51.56496732 98.18368953 40.84741211 98.3293457 C40.13464111 98.32378662 39.42187012 98.31822754 38.6875 98.3125 C37.94056885 98.30758545 37.1936377 98.3026709 36.42407227 98.29760742 C25.67616318 98.07041585 17.44518618 94.68539276 9.3125 87.6875 C0.11461024 76.99806055 -0.29297227 66.7367369 -0.1953125 53.125 C-0.19157672 51.58943873 -0.18873242 50.05387506 -0.18673706 48.51831055 C-0.17914503 44.50044025 -0.15953525 40.48271734 -0.1373291 36.46490479 C-0.11677459 32.35552971 -0.10771491 28.24613055 -0.09765625 24.13671875 C-0.07628461 16.09107107 -0.04113925 8.04557091 0 0 Z " fill="#363636" transform="translate(1281,819)"/>
<path d="M0 0 C21.45 0 42.9 0 65 0 C65 3.96 65 7.92 65 12 C48.5 12 32 12 15 12 C15 21.9 15 31.8 15 42 C27.54 42 40.08 42 53 42 C53 45.96 53 49.92 53 54 C40.46 54 27.92 54 15 54 C15 64.23 15 74.46 15 85 C31.5 85 48 85 65 85 C65 88.96 65 92.92 65 97 C43.55 97 22.1 97 0 97 C0 64.99 0 32.98 0 0 Z " fill="#363636" transform="translate(884,819)"/>
<path d="M0 0 C5.35779601 3.73061352 9.7569811 7.71954707 12 14 C12 14.66 12 15.32 12 16 C10.42032193 16.67528223 8.83608097 17.33989694 7.25 18 C6.36828125 18.37125 5.4865625 18.7425 4.578125 19.125 C2 20 2 20 -2 20 C-2.5775 19.0925 -3.155 18.185 -3.75 17.25 C-6.64054682 13.07476571 -9.13512183 11.37569225 -14 10 C-21.23974439 9.03289307 -27.54767751 9.06953243 -33.5390625 13.58203125 C-35.66588071 15.64629598 -36.50999808 17.05998848 -37 20 C-36.86696814 23.79140804 -36.73672803 26.12025028 -34.26953125 29.06640625 C-31.83685096 31.13899961 -29.77593044 32.19631539 -26.8125 33.375 C-25.76191406 33.79523437 -24.71132812 34.21546875 -23.62890625 34.6484375 C-20.26515858 35.90124341 -16.88601001 37.07791132 -13.48852539 38.234375 C-2.89911473 41.85618674 5.40294444 45.47904169 12 55 C15.22871738 62.7208459 14.72099008 70.74505734 12.09375 78.578125 C8.44186821 86.66443467 2.06404874 90.8527247 -6 94 C-16.89902169 97.1262282 -30.37864634 95.89175506 -40.38671875 90.78125 C-46.15096053 87.35128795 -50.05704877 83.04356057 -53 77 C-53.65625 74.22265625 -53.65625 74.22265625 -54 72 C-52.23141309 71.32739649 -50.46003984 70.66211605 -48.6875 70 C-47.70136719 69.62875 -46.71523437 69.2575 -45.69921875 68.875 C-43 68 -43 68 -40 68 C-38.7890625 69.609375 -38.7890625 69.609375 -37.625 71.75 C-34.90812085 76.37360458 -32.18877415 79.27040862 -27 81 C-15.18963743 82.01764841 -15.18963743 82.01764841 -5 77 C-2.41390617 73.52493641 -1.74653711 70.74641223 -1.875 66.5 C-2.6019642 62.20299378 -3.98128016 59.98545407 -7.46875 57.3984375 C-14.47035985 53.53026416 -22.29756937 51.21730391 -29.87109375 48.72265625 C-38.1374412 45.93754672 -45.6778145 43.24474035 -50.5 35.5625 C-53.6603858 28.2258901 -53.33999352 18.39159027 -50.5 11 C-46.70545487 4.0280157 -41.35273018 0.16785114 -33.9375 -2.4375 C-22.56907633 -5.47697438 -10.62361481 -5.44099299 0 0 Z " fill="#363636" transform="translate(1436,822)"/>
<path d="M0 0 C5.28 0 10.56 0 16 0 C16.45737549 1.29695801 16.91475098 2.59391602 17.38598633 3.93017578 C26.11489308 28.67302322 34.86393368 53.40405767 44 78 C45.80386671 75.29419993 46.76675119 73.1722262 47.84423828 70.14331055 C48.19865997 69.1534465 48.55308167 68.16358246 48.91824341 67.14372253 C49.29842621 66.06891129 49.67860901 64.99410004 50.0703125 63.88671875 C50.47023407 62.76675003 50.87015564 61.64678131 51.28219604 60.49287415 C52.5669887 56.89244434 53.84617011 53.29005151 55.125 49.6875 C56.37926929 46.16531991 57.634705 42.64355731 58.89031982 39.12185669 C59.71635419 36.80486619 60.54191839 34.48770802 61.36700439 32.17037964 C65.19457734 21.4286076 69.08627441 10.71063955 73 0 C78.28 0 83.56 0 89 0 C86.48219541 8.91852144 83.27701433 17.53594101 80.01171875 26.19921875 C79.42479264 27.76315932 78.83811219 29.3271921 78.25166321 30.89131165 C77.02568755 34.15902335 75.797525 37.4259013 74.56762695 40.69213867 C73.00786784 44.83458424 71.45239039 48.97862037 69.89844036 53.1232481 C68.68741489 56.3523744 67.47466155 59.5808496 66.26136208 62.80912209 C65.68818112 64.33446852 65.11537166 65.8599546 64.54297447 67.38559532 C60.81785222 77.30901416 56.96611411 87.17015761 53 97 C47.39 97 41.78 97 36 97 C32.10392555 87.81083269 28.50202951 78.53495922 25 69.19140625 C24.43639721 67.69262829 23.87259093 66.19392684 23.30859375 64.69529724 C21.83572604 60.78022007 20.36529983 56.86423077 18.89550781 52.94799805 C16.54500656 46.68661644 14.19039186 40.42677995 11.83642578 34.16670036 C11.02444154 32.00643247 10.2132968 29.84585109 9.40234375 27.68519592 C9.01985474 26.6670526 9.01985474 26.6670526 8.62963867 25.62834072 C8.13319061 24.30672507 7.63724552 22.98492035 7.1418457 21.66291142 C5.95643301 18.50737411 4.75391274 15.3602679 3.515625 12.22506714 C3.05671875 11.05887848 2.5978125 9.89268982 2.125 8.69116211 C1.71507812 7.66325058 1.30515625 6.63533905 0.8828125 5.57627869 C0 3 0 3 0 0 Z " fill="#363636" transform="translate(773,819)"/>
<path d="M0 0 C4.95 0 9.9 0 15 0 C18.15014541 6.84651766 20.81540381 13.77493553 23.3359375 20.875 C23.73777252 21.9983374 24.13960754 23.1216748 24.55361938 24.27905273 C25.83064982 27.85155552 27.10286694 31.42575078 28.375 35 C29.22104443 37.36860024 30.06739599 39.7370908 30.9140625 42.10546875 C35.30410729 54.39374043 39.67034362 66.6903203 44 79 C46.86689451 71.97620114 49.52908744 64.89725031 52.08203125 57.75390625 C52.45929855 56.70331528 52.83656586 55.6527243 53.2252655 54.57029724 C54.42271384 51.23497306 55.61776612 47.89879738 56.8125 44.5625 C58.38044512 40.18841936 59.94950925 35.81474184 61.51953125 31.44140625 C61.8985257 30.38547272 62.27752014 29.32953918 62.66799927 28.24160767 C66.05888844 18.80801881 69.51393426 9.39878261 73 0 C78.28 0 83.56 0 89 0 C86.55036297 8.65859726 83.45369871 17.03079274 80.265625 25.4375 C79.70348683 26.92698189 79.14162305 28.41656736 78.58001709 29.90625 C77.40531943 33.02014366 76.2284585 36.13320715 75.04980469 39.24560547 C73.55988773 43.17996794 72.0736277 47.11569789 70.58876801 51.05197144 C64.79983421 66.39715652 58.98841859 81.7312836 53 97 C47.39 97 41.78 97 36 97 C32.31142459 89.01249746 29.2172598 80.8236596 26.1328125 72.58984375 C25.57020873 71.09395267 25.00736841 69.59815054 24.44430542 68.10243225 C22.96798124 64.17879701 21.49487577 60.25396109 20.02246094 56.32885742 C18.5416852 52.38321042 17.05780895 48.43873002 15.57421875 44.49414062 C13.89574938 40.03041589 12.21765734 35.56655027 10.54129028 31.10203552 C10.2855316 30.42097528 10.02977291 29.73991503 9.76626396 29.03821659 C9.26353725 27.69827425 8.76146453 26.35808633 8.26008797 25.01763821 C6.94962004 21.51607859 5.62605193 18.02018258 4.28411865 14.5305481 C3.86536626 13.43424623 3.86536626 13.43424623 3.43815422 12.31579685 C2.90318141 10.91591021 2.36436683 9.51748374 1.82113838 8.12077999 C0.73009678 5.25511525 0 3.09589347 0 0 Z " fill="#363636" transform="translate(450,819)"/>
<path d="M0 0 C5.45233389 -1.52948587 10.71086877 -2.53324042 16 0 C21.54854685 5.77356348 24.81614086 13.53755167 28.31542969 20.64990234 C30.95165419 25.89255054 33.91985 30.93270379 36.875 36 C37.87462722 37.74872636 38.87224953 39.49860145 39.8671875 41.25 C40.28081543 41.97703125 40.69444336 42.7040625 41.12060547 43.453125 C41.41080566 43.96359375 41.70100586 44.4740625 42 45 C44.85523458 42.47706956 46.44376921 39.65939684 48.2578125 36.328125 C48.87841553 35.19479736 49.49901855 34.06146973 50.13842773 32.89379883 C50.46253632 32.29773834 50.7866449 31.70167786 51.12057495 31.08755493 C52.13033982 29.24023102 53.15461668 27.40173208 54.18383789 25.56518555 C57.07306248 20.3994852 59.93789911 15.25444972 62.42578125 9.87890625 C64.24169179 6.11077364 65.91030732 2.90906449 69 0 C74.28240755 -1.61919017 79.64423954 -0.88715051 85 0 C84.32736161 3.53600826 82.88269193 6.20507209 81.078125 9.3046875 C80.47081543 10.35285645 79.86350586 11.40102539 79.23779297 12.48095703 C78.58182129 13.60099121 77.92584961 14.72102539 77.25 15.875 C76.57274423 17.03870472 75.89582733 18.20260673 75.21923828 19.36669922 C73.15383353 22.91564517 71.07792928 26.45837684 69 30 C68.37254883 31.07056641 67.74509766 32.14113281 67.09863281 33.24414062 C64.34254186 37.94124544 61.5798278 42.63443471 58.8046875 47.3203125 C58.17022705 48.39176514 58.17022705 48.39176514 57.52294922 49.48486328 C56 52 56 52 54.73731995 53.75970459 C51.19325552 58.88273328 50.26134779 62.69947924 50.29296875 68.875 C50.27784744 69.68493408 50.26272614 70.49486816 50.24714661 71.3293457 C50.20456101 73.88652012 50.1954605 76.44250763 50.1875 79 C50.16433282 80.74612467 50.1389629 82.49222158 50.11132812 84.23828125 C50.04876461 88.49229106 50.0162019 92.74557129 50 97 C45.05 97 40.1 97 35 97 C35.10183594 94.61910156 35.20367188 92.23820313 35.30859375 89.78515625 C35.88213443 68.97380476 33.78801137 55.25592868 21.14892578 38.05810547 C17.6731577 33.11178975 14.74710961 27.86774644 11.78619385 22.60263062 C10.25675499 19.88893841 8.69875874 17.19173618 7.14453125 14.4921875 C6.60006348 13.53924805 6.0555957 12.58630859 5.49462891 11.60449219 C4.56844253 9.99054964 3.6346664 8.38090582 2.68896484 6.77832031 C0 2.20602004 0 2.20602004 0 0 Z " fill="#363636" transform="translate(1657,819)"/>
<path d="M0 0 C24.75 0 49.5 0 75 0 C75 3.96 75 7.92 75 12 C65.1 12 55.2 12 45 12 C45 40.05 45 68.1 45 97 C40.05 97 35.1 97 30 97 C30 68.95 30 40.9 30 12 C20.1 12 10.2 12 0 12 C0 8.04 0 4.08 0 0 Z " fill="#363636" transform="translate(1469,819)"/>
<path d="M0 0 C24.75 0 49.5 0 75 0 C75 3.96 75 7.92 75 12 C65.1 12 55.2 12 45 12 C45.00523682 14.53937256 45.01047363 17.07874512 45.01586914 19.69506836 C45.03240461 28.06501061 45.04347105 36.43495357 45.05181217 44.8049078 C45.0570411 49.88191018 45.06413892 54.95889589 45.07543945 60.03588867 C45.08626799 64.93120552 45.09227676 69.82650629 45.09487724 74.72183418 C45.09673155 76.59382951 45.10035228 78.46582391 45.10573006 80.33781242 C45.11294004 82.95040699 45.11399096 85.56293427 45.11352539 88.17553711 C45.11712067 88.95740387 45.12071594 89.73927063 45.12442017 90.54483032 C45.11405216 95.88594784 45.11405216 95.88594784 44 97 C39.38 97 34.76 97 30 97 C30 68.95 30 40.9 30 12 C20.1 12 10.2 12 0 12 C0 8.04 0 4.08 0 0 Z " fill="#343434" transform="translate(638,819)"/>
<path d="M0 0 C4.95 0 9.9 0 15 0 C15 32.01 15 64.02 15 97 C10.05 97 5.1 97 0 97 C0 64.99 0 32.98 0 0 Z " fill="#383838" transform="translate(1023,819)"/>
<path d="M0 0 C4.95 0 9.9 0 15 0 C15 32.01 15 64.02 15 97 C10.05 97 5.1 97 0 97 C0 64.99 0 32.98 0 0 Z " fill="#363636" transform="translate(736,819)"/>
<path d="M0 0 C4.62 0 9.24 0 14 0 C14 32.01 14 64.02 14 97 C9.38 97 4.76 97 0 97 C0 64.99 0 32.98 0 0 Z " fill="#363636" transform="translate(87,819)"/>
</svg>
